<svg width="20" height="20" viewBox="0 0 20 20" fill="none" xmlns="http://www.w3.org/2000/svg">
<path d="M5.5 14.5C5.5 12.0147 7.51472 10 10 10C12.4853 10 14.5 12.0147 14.5 14.5" stroke="#2B2B2B" stroke-width="1.6" stroke-linecap="round"/>
<path d="M9.99999 10.0001C11.4912 10.0001 12.7 8.79131 12.7 7.3001C12.7 5.80893 11.4912 4.6001 9.99999 4.6001C8.50878 4.6001 7.29999 5.80893 7.29999 7.3001C7.29999 8.79131 8.50878 10.0001 9.99999 10.0001Z" stroke="#2B2B2B" stroke-width="1.6" stroke-linecap="round" stroke-linejoin="round"/>
<path d="M10 19C14.9706 19 19 14.9706 19 10C19 5.02944 14.9706 1 10 1C5.02944 1 1 5.02944 1 10C1 14.9706 5.02944 19 10 19Z" stroke="#2B2B2B" stroke-width="1.6"/>
</svg>
