<svg width="14" height="14" viewBox="0 0 14 14" fill="none" xmlns="http://www.w3.org/2000/svg">
<path d="M12.0256 13.9999C11.7313 13.9999 11.4872 13.7785 11.4872 13.5115V6.34872C11.4872 6.08175 11.7313 5.86035 12.0256 5.86035C12.32 5.86035 12.5641 6.08175 12.5641 6.34872V13.5115C12.5641 13.7785 12.32 13.9999 12.0256 13.9999Z" fill="#3A0CA3"/>
<path d="M12.0256 4.23256C11.7313 4.23256 11.4872 4.01116 11.4872 3.74419V0.488372C11.4872 0.221395 11.7313 0 12.0256 0C12.32 0 12.5641 0.221395 12.5641 0.488372V3.74419C12.5641 4.01116 12.32 4.23256 12.0256 4.23256Z" fill="#3A0CA3"/>
<path d="M7.00001 13.9999C6.70565 13.9999 6.46155 13.7785 6.46155 13.5115V10.2557C6.46155 9.98873 6.70565 9.76733 7.00001 9.76733C7.29437 9.76733 7.53847 9.98873 7.53847 10.2557V13.5115C7.53847 13.7785 7.29437 13.9999 7.00001 13.9999Z" fill="#3A0CA3"/>
<path d="M7.00001 8.13953C6.70565 8.13953 6.46155 7.91814 6.46155 7.65116V0.488372C6.46155 0.221395 6.70565 0 7.00001 0C7.29437 0 7.53847 0.221395 7.53847 0.488372V7.65116C7.53847 7.91814 7.29437 8.13953 7.00001 8.13953Z" fill="#3A0CA3"/>
<path d="M1.97434 13.9999C1.67999 13.9999 1.43588 13.7785 1.43588 13.5115V6.34872C1.43588 6.08175 1.67999 5.86035 1.97434 5.86035C2.2687 5.86035 2.51281 6.08175 2.51281 6.34872V13.5115C2.51281 13.7785 2.2687 13.9999 1.97434 13.9999Z" fill="#3A0CA3"/>
<path d="M1.97434 4.23256C1.67999 4.23256 1.43588 4.01116 1.43588 3.74419V0.488372C1.43588 0.221395 1.67999 0 1.97434 0C2.2687 0 2.51281 0.221395 2.51281 0.488372V3.74419C2.51281 4.01116 2.2687 4.23256 1.97434 4.23256Z" fill="#3A0CA3"/>
<path d="M3.41026 6.8371H0.538462C0.244103 6.8371 0 6.6157 0 6.34872C0 6.08175 0.244103 5.86035 0.538462 5.86035H3.41026C3.70462 5.86035 3.94872 6.08175 3.94872 6.34872C3.94872 6.6157 3.70462 6.8371 3.41026 6.8371Z" fill="#3A0CA3"/>
<path d="M13.4615 6.8371H10.5897C10.2954 6.8371 10.0513 6.6157 10.0513 6.34872C10.0513 6.08175 10.2954 5.86035 10.5897 5.86035H13.4615C13.7559 5.86035 14 6.08175 14 6.34872C14 6.6157 13.7559 6.8371 13.4615 6.8371Z" fill="#3A0CA3"/>
<path d="M8.43589 8.13959H5.5641C5.26974 8.13959 5.02563 7.91819 5.02563 7.65121C5.02563 7.38424 5.26974 7.16284 5.5641 7.16284H8.43589C8.73025 7.16284 8.97435 7.38424 8.97435 7.65121C8.97435 7.91819 8.73025 8.13959 8.43589 8.13959Z" fill="#3A0CA3"/>
</svg>
